<svg width="27" height="27" viewBox="0 0 27 27" fill="none" xmlns="http://www.w3.org/2000/svg">
<circle cx="13.5" cy="13.5" r="13.5" fill="white"/>
<path d="M18.5866 9.53983L18.2921 9.28679C17.8032 8.86665 17.0685 8.91348 16.6368 9.39214L11.7095 14.8555L10.2222 13.5745C9.73383 13.1539 8.99903 13.1998 8.56687 13.678L8.30644 13.9661C8.09525 14.1997 7.9856 14.5078 8.00152 14.8225C8.0176 15.137 8.15792 15.4323 8.39183 15.6434L11.1182 18.14C11.3542 18.3617 11.6705 18.4773 11.9939 18.4601C12.3172 18.443 12.6195 18.2944 12.8307 18.049L18.7127 11.2146C18.9182 10.9758 19.0203 10.6652 18.9966 10.3512C18.973 10.0369 18.8255 9.74511 18.5866 9.53983Z" fill="#2C7AED"/>
</svg>
