<svg width="109" height="109" viewBox="0 0 109 109" fill="none" xmlns="http://www.w3.org/2000/svg">
<rect width="109" height="109" fill="#5C5B8F"/>
<path d="M72.9034 40.0001C70.0931 40.0001 67.8069 42.7298 67.8069 46.0851C67.8069 47.3089 68.112 48.4485 68.6348 49.4036L63.1286 55.9777C62.3285 55.3536 61.374 54.9893 60.3491 54.9893C59.287 54.9893 58.2999 55.3797 57.4826 56.046L51.9196 49.4031C52.4423 48.448 52.7473 47.3085 52.7473 46.085C52.7473 42.7297 50.461 40 47.6507 40C44.8405 40 42.5542 42.7297 42.5542 46.085C42.5542 47.3085 42.8593 48.4477 43.3818 49.4028L37.8754 55.9773C37.0755 55.3534 36.1212 54.9893 35.0965 54.9893C32.2863 54.9893 30 57.7191 30 61.0744C30 64.4297 32.2863 67.1594 35.0965 67.1594C37.9068 67.1594 40.193 64.4297 40.193 61.0744C40.193 59.8506 39.8879 58.711 39.3651 57.7558L44.8713 51.1816C45.6714 51.8058 46.6259 52.1701 47.6508 52.1701C48.6757 52.1701 49.6302 51.8058 50.4301 51.1816L56.0238 57.8611C55.5358 58.7944 55.2526 59.8954 55.2526 61.0743C55.2526 64.4296 57.5389 67.1593 60.3492 67.1593C63.1594 67.1593 65.4457 64.4296 65.4457 61.0743C65.4457 59.8507 65.1406 58.7115 64.6182 57.7565L70.1246 51.182C70.9246 51.8059 71.8789 52.17 72.9035 52.17C75.7137 52.17 78 49.4403 78 46.085C78 42.7296 75.7136 40.0001 72.9034 40.0001ZM35.0965 64.6441C33.4478 64.6441 32.1066 63.0427 32.1066 61.0744C32.1066 59.1059 33.4478 57.5045 35.0965 57.5045C36.7451 57.5045 38.0865 59.1059 38.0865 61.0744C38.0865 63.0427 36.7452 64.6441 35.0965 64.6441ZM47.6508 49.6549C46.0023 49.6549 44.6609 48.0535 44.6609 46.085C44.6609 44.1167 46.0022 42.5151 47.6508 42.5151C49.2995 42.5151 50.6408 44.1166 50.6408 46.085C50.6408 48.0535 49.2995 49.6549 47.6508 49.6549ZM60.3491 64.6441C58.7005 64.6441 57.3591 63.0427 57.3591 61.0743C57.3591 59.1058 58.7004 57.5044 60.3491 57.5044C61.9977 57.5044 63.339 59.1058 63.339 61.0743C63.3389 63.0427 61.9977 64.6441 60.3491 64.6441ZM72.9034 49.6549C71.2548 49.6549 69.9134 48.0535 69.9134 46.085C69.9134 44.1167 71.2547 42.5151 72.9034 42.5151C74.552 42.5151 75.8933 44.1166 75.8933 46.085C75.8933 48.0535 74.552 49.6549 72.9034 49.6549Z" fill="white"/>
</svg>
