<svg width="109" height="109" viewBox="0 0 109 109" fill="none" xmlns="http://www.w3.org/2000/svg">
<rect width="109" height="109" fill="#5C5B8F"/>
<path d="M75.8542 63.8907L72.9503 62.9001C72.825 62.8573 72.7374 62.7188 72.7374 62.5631V61.4058C72.9737 61.2104 73.1991 60.9916 73.4097 60.7475C74.4307 59.5646 74.9929 57.978 74.9929 56.2797V54.6828L75.2737 54.0124C75.5818 53.2764 75.7447 52.4525 75.7447 51.6298V47.3036C75.7447 46.84 75.4298 46.4641 75.0415 46.4641H68.2753C65.8149 46.4641 63.8132 48.8541 63.8132 51.7916V51.8417C63.8132 52.5258 63.9487 53.211 64.2049 53.8228L64.565 54.6827V56.0538C64.565 58.2269 65.4619 60.1767 66.8204 61.3499L66.8206 62.5628C66.8206 62.7499 66.8206 62.8273 66.24 63.0255L64.8231 63.5088L60.7242 61.7293C60.7389 61.4984 60.6737 61.2635 60.5326 61.0866L59.2228 59.4436V56.6856C59.3613 56.5494 59.4978 56.4094 59.6301 56.2615C61.2824 54.4123 62.23 51.8016 62.23 49.0988V46.8961C62.729 45.5998 62.9818 44.2281 62.9818 42.8154V33.8395C62.9818 33.3759 62.667 33 62.2787 33H51.7535C48.0494 33 45.036 36.598 45.036 41.0203V42.8156C45.036 44.2283 45.2888 45.6001 45.7878 46.8964V48.7915C45.7878 51.9297 46.9565 54.7569 48.795 56.6208V59.4437L47.4852 61.0867C47.3441 61.2636 47.2789 61.4985 47.2936 61.7294L42.9675 63.6075C42.654 63.7436 42.3627 63.928 42.0983 64.1513L41.4189 63.7458C43.4411 62.6948 44.0817 61.2167 44.1125 61.1433C44.2115 60.907 44.2115 60.6288 44.1125 60.3925C43.6056 59.182 43.5442 56.9634 43.4948 55.1808C43.4784 54.5873 43.4629 54.0266 43.4332 53.5274C43.1934 49.5007 40.6296 46.4641 37.4692 46.4641C34.3089 46.4641 31.745 49.5006 31.5053 53.5274C31.4756 54.0267 31.4601 54.5874 31.4437 55.181C31.3943 56.9635 31.3328 59.1819 30.826 60.3924C30.727 60.6286 30.727 60.9069 30.826 61.1432C30.8568 61.2166 31.4961 62.6917 33.5223 63.7439L31.6354 64.8702C30.6266 65.4729 30 66.6834 30 68.0299V74.232C30 74.6956 30.3148 75.0715 30.7031 75.0715C31.0914 75.0715 31.4062 74.6956 31.4062 74.232V68.0299C31.4062 67.3234 31.735 66.6881 32.2643 66.3721L34.6139 64.9695L35.4312 65.8969C36.0027 66.5453 36.7358 66.8694 37.4692 66.8694C38.2025 66.8694 38.936 66.5451 39.5073 65.8969L40.3245 64.9696L41.0906 65.427C40.7299 66.1162 40.5251 66.9243 40.5251 67.7709V74.2322C40.5251 74.6958 40.8399 75.0717 41.2282 75.0717C41.6166 75.0717 41.9314 74.6958 41.9314 74.2322V67.7709C41.9314 66.6184 42.5408 65.5794 43.4481 65.1855L48.0092 63.2053L49.9079 66.606C50.1506 67.0407 50.5396 67.3195 50.9751 67.371C51.0236 67.3767 51.0719 67.3795 51.1201 67.3795C51.5043 67.3795 51.8722 67.199 52.1473 66.8707L53.3057 65.4877V74.2323C53.3057 74.6959 53.6205 75.0718 54.0088 75.0718C54.3971 75.0718 54.7119 74.6959 54.7119 74.2323V65.4877L55.8703 66.8707C56.1453 67.1991 56.5133 67.3797 56.8975 67.3797C56.9456 67.3797 56.994 67.3769 57.0425 67.3712C57.478 67.3197 57.867 67.0408 58.1097 66.6061L60.0085 63.2056L64.5696 65.1858C65.4767 65.5797 66.0863 66.6186 66.0863 67.7711V74.2324C66.0863 74.696 66.4011 75.0719 66.7894 75.0719C67.1777 75.0719 67.4925 74.696 67.4925 74.2324V67.7711C67.4925 66.6039 67.1041 65.5091 66.4525 64.6995L66.6263 64.6403C66.8015 64.5805 67.0405 64.4987 67.2805 64.3582L69.0758 66.5017V74.2324C69.0758 74.696 69.3906 75.0719 69.7789 75.0719C70.1672 75.0719 70.482 74.696 70.482 74.2324V66.5017L72.2648 64.3731C72.3595 64.4307 72.4591 64.4792 72.5639 64.515L75.4679 65.5056C76.1307 65.7317 76.5938 66.4645 76.5938 67.2877V74.2324C76.5938 74.696 76.9086 75.0719 77.2969 75.0719C77.6852 75.0719 78 74.696 78 74.2324V67.2877C78 65.7186 77.1176 64.3218 75.8542 63.8907ZM34.5108 62.4079C33.1956 61.8429 32.5358 61.0896 32.2542 60.6782C32.4462 60.0789 32.5707 59.3926 32.655 58.668C33.0427 59.7781 33.6922 60.7257 34.5108 61.4018V62.4079ZM38.5387 64.6799C37.939 65.3603 36.9996 65.3602 36.4 64.6798L35.7461 63.9379C35.8565 63.6911 35.9171 63.4113 35.9171 63.1181V62.2234C36.4076 62.4064 36.9291 62.5051 37.4694 62.5051C38.0092 62.5051 38.5303 62.4059 39.0217 62.2239L39.0216 63.118C39.0216 63.4113 39.0821 63.6912 39.1926 63.9382L38.5387 64.6799ZM37.4696 60.8261C35.37 60.8261 33.662 58.7867 33.662 56.2799C33.662 55.8163 33.3472 55.4404 32.9588 55.4404C32.9195 55.4404 32.881 55.4453 32.8434 55.4528C32.8455 55.3806 32.8475 55.3082 32.8495 55.2367C32.8652 54.6595 32.8803 54.1143 32.9081 53.6466C32.9979 52.1382 33.5028 50.7482 34.3297 49.7325C35.1639 48.7077 36.279 48.1433 37.4694 48.1433C38.6599 48.1433 39.7748 48.7077 40.6092 49.7325C41.4361 50.7482 41.9409 52.1382 42.0308 53.6466C42.0585 54.1141 42.0737 54.6593 42.0896 55.2364C42.091 55.286 42.0924 55.3362 42.0938 55.3862C41.3288 53.9789 40.1474 52.9419 38.6209 52.3562C37.2106 51.8153 35.9977 51.8487 35.9465 51.8503C35.7623 51.8565 35.5876 51.9485 35.4598 52.1067L34.1912 53.6776C33.9217 54.0114 33.9297 54.5428 34.2093 54.8647C34.4888 55.1865 34.934 55.1767 35.2035 54.8431L36.2591 53.536C37.1682 53.5891 40.0929 53.9952 41.2304 56.9857C40.9442 59.1894 39.3577 60.8261 37.4696 60.8261ZM40.4277 62.4107L40.4278 61.4095C41.2458 60.7371 41.8961 59.7913 42.2842 58.6728C42.3684 59.3957 42.4928 60.0805 42.6845 60.6785C42.4044 61.0859 41.7416 61.8459 40.4277 62.4107ZM47.194 48.7914V46.7085C47.194 46.5822 47.1701 46.4574 47.1241 46.3435C46.6717 45.2249 46.4422 44.0379 46.4422 42.8156V41.0204C46.4422 37.5238 48.8249 34.6791 51.7535 34.6791H61.5756V42.8157C61.5756 44.038 61.3462 45.225 60.8937 46.3436C60.8477 46.4575 60.8238 46.5823 60.8238 46.7087V49.099C60.8238 51.3725 60.0583 53.4812 58.6684 55.0367C58.4948 55.2308 58.3148 55.4128 58.1286 55.5824C58.1244 55.5857 58.1205 55.5894 58.1165 55.5929C56.8144 56.7732 55.2195 57.3469 53.5539 57.218C49.9876 56.9424 47.194 53.241 47.194 48.7914ZM51.153 65.6833C51.1481 65.6891 51.1368 65.7029 51.1138 65.7C51.0909 65.6973 51.0819 65.6813 51.0781 65.6744L48.8914 61.758L49.5951 60.8752L52.9124 63.5826L51.153 65.6833ZM54.0089 62.4436L50.2013 59.3362V57.7691C51.1865 58.405 52.2896 58.8027 53.4629 58.8933C53.6483 58.9077 53.8325 58.9147 54.0161 58.9147C55.3606 58.9147 56.6545 58.531 57.8166 57.8027V59.3362L54.0089 62.4436ZM56.9397 65.6746C56.9359 65.6815 56.9269 65.6975 56.904 65.7002C56.881 65.7037 56.8698 65.6892 56.8648 65.6835L55.1054 63.5829L58.4227 60.8755L59.1265 61.7583L56.9397 65.6746ZM69.7789 64.9663L68.1833 63.0613C68.2111 62.9103 68.2268 62.745 68.2268 62.5626L68.2267 62.2084C68.6694 62.3818 69.1361 62.4848 69.619 62.5021C69.6732 62.5041 69.7269 62.505 69.7809 62.505C70.3146 62.505 70.8354 62.4087 71.3312 62.225V62.5631C71.3312 62.7305 71.3488 62.8946 71.382 63.0523L69.7789 64.9663ZM72.4304 59.5427C71.6852 60.4061 70.7007 60.8621 69.6613 60.8239C67.6266 60.751 65.9712 58.6112 65.9712 56.0541V54.4846C65.9712 54.3542 65.9458 54.2257 65.897 54.1092L65.4626 53.072C65.3035 52.692 65.2194 52.2667 65.2194 51.8418V51.7918C65.2194 49.7799 66.5903 48.1432 68.2753 48.1432H74.3384V51.6299C74.3384 52.1934 74.2268 52.7576 74.0158 53.2617L73.6609 54.1092C73.612 54.2259 73.5866 54.3542 73.5866 54.4846V56.2798C73.5866 57.52 73.176 58.6788 72.4304 59.5427Z" fill="white"/>
</svg>
