<svg width="27" height="21" viewBox="0 0 27 21" fill="none" xmlns="http://www.w3.org/2000/svg">
<path d="M25.3125 0H0.9375C0.418945 0 0 0.418945 0 0.9375V19.6875C0 20.2061 0.418945 20.625 0.9375 20.625H25.3125C25.8311 20.625 26.25 20.2061 26.25 19.6875V0.9375C26.25 0.418945 25.8311 0 25.3125 0ZM24.1406 3.24609V18.5156H2.10938V3.24609L1.30078 2.61621L2.45215 1.13672L3.70605 2.1123H22.5469L23.8008 1.13672L24.9521 2.61621L24.1406 3.24609ZM22.5469 2.10938L13.125 9.43359L3.70312 2.10938L2.44922 1.13379L1.29785 2.61328L2.10645 3.24316L12.1143 11.0244C12.4021 11.248 12.7561 11.3694 13.1206 11.3694C13.4851 11.3694 13.8391 11.248 14.127 11.0244L24.1406 3.24609L24.9492 2.61621L23.7979 1.13672L22.5469 2.10938Z" fill="#2091F9"/>
</svg>
