<svg width="33" height="33" viewBox="0 0 33 33" fill="none" xmlns="http://www.w3.org/2000/svg">
<path d="M31.3728 0H1.91364C1.20518 0 0.632812 0.572371 0.632812 1.28083V30.7399C0.632812 31.4484 1.20518 32.0208 1.91364 32.0208H31.3728C32.0812 32.0208 32.6536 31.4484 32.6536 30.7399V1.28083C32.6536 0.572371 32.0812 0 31.3728 0ZM27.6744 9.34606H25.1167C23.1114 9.34606 22.7231 10.2987 22.7231 11.6996V14.7856H27.5103L26.8858 19.6167H22.7231V32.0208H17.7319V19.6207H13.5572V14.7856H17.7319V11.2233C17.7319 7.0886 20.2575 4.83514 23.9479 4.83514C25.7171 4.83514 27.2341 4.96722 27.6784 5.02726V9.34606H27.6744Z" fill="#2091F9"/>
</svg>
