<svg width="33" height="33" viewBox="0 0 33 33" fill="none" xmlns="http://www.w3.org/2000/svg">
<path d="M31.3571 0H1.89802C1.18956 0 0.617188 0.572371 0.617188 1.28083V30.7399C0.617188 31.4484 1.18956 32.0208 1.89802 32.0208H31.3571C32.0656 32.0208 32.638 31.4484 32.638 30.7399V1.28083C32.638 0.572371 32.0656 0 31.3571 0ZM10.1153 27.2857H5.36427V12.0038H10.1153V27.2857ZM7.74181 9.91443C7.19716 9.91443 6.66475 9.75293 6.21189 9.45034C5.75903 9.14775 5.40607 8.71766 5.19764 8.21447C4.98922 7.71129 4.93468 7.15759 5.04094 6.62341C5.14719 6.08923 5.40947 5.59855 5.79459 5.21343C6.17971 4.8283 6.67039 4.56603 7.20457 4.45977C7.73876 4.35352 8.29245 4.40805 8.79564 4.61648C9.29883 4.82491 9.72891 5.17787 10.0315 5.63072C10.3341 6.08358 10.4956 6.616 10.4956 7.16065C10.4916 8.68163 9.25879 9.91443 7.74181 9.91443ZM27.9029 27.2857H23.1558V19.8529C23.1558 18.0797 23.1238 15.8023 20.6862 15.8023C18.2166 15.8023 17.8364 17.7315 17.8364 19.7248V27.2857H13.0933V12.0038H17.6482V14.0931H17.7123C18.3447 12.8924 19.8937 11.6235 22.2072 11.6235C27.0183 11.6235 27.9029 14.7896 27.9029 18.9043V27.2857Z" fill="#2091F9"/>
</svg>
