<svg width="109" height="108" viewBox="0 0 109 108" fill="none" xmlns="http://www.w3.org/2000/svg">
<rect width="109" height="108" fill="#5E5BFB"/>
<path d="M81.8867 26H27.1133C26.4984 26 26 26.6196 26 27.3839V85.5077C26 86.2718 26.4984 86.8915 27.1133 86.8915H49.4902C50.1051 86.8915 50.6035 86.2718 50.6035 85.5077C50.6035 84.7435 50.1051 84.1238 49.4902 84.1238H28.2266V41.2229H80.7734V84.1238H59.5098C58.895 84.1238 58.3965 84.7435 58.3965 85.5077C58.3965 86.2718 58.895 86.8915 59.5098 86.8915H81.8867C82.5015 86.8915 83 86.2718 83 85.5077V27.3839C83 26.6196 82.5015 26 81.8867 26ZM80.7734 38.4551H28.2266V28.7678H60.0664V31.5356C60.0664 32.2998 60.5649 32.9195 61.1797 32.9195C61.7944 32.9195 62.293 32.2998 62.293 31.5356V28.7678H66.7461V31.5356C66.7461 32.2998 67.2446 32.9195 67.8594 32.9195C68.4741 32.9195 68.9727 32.2998 68.9727 31.5356V28.7678H73.4258V31.5356C73.4258 32.2998 73.9243 32.9195 74.5391 32.9195C75.1538 32.9195 75.6523 32.2998 75.6523 31.5356V28.7678H80.7734V38.4551Z" fill="white"/>
</svg>
