<svg width="109" height="116" viewBox="0 0 109 116" fill="none" xmlns="http://www.w3.org/2000/svg">
<rect width="109" height="116" fill="#5E5BFB"/>
<path d="M81.8867 28H27.1133C26.4984 28 26 28.6196 26 29.3839V87.5077C26 88.2718 26.4984 88.8916 27.1133 88.8916H49.4902C50.1051 88.8916 50.6035 88.2718 50.6035 87.5077C50.6035 86.7435 50.1051 86.1238 49.4902 86.1238H28.2266V43.2229H80.7734V86.1238H59.5098C58.895 86.1238 58.3965 86.7435 58.3965 87.5077C58.3965 88.2718 58.895 88.8916 59.5098 88.8916H81.8867C82.5015 88.8916 83 88.2718 83 87.5077V29.3839C83 28.6196 82.5015 28 81.8867 28ZM80.7734 40.4551H28.2266V30.7678H60.0664V33.5356C60.0664 34.2998 60.5649 34.9195 61.1797 34.9195C61.7944 34.9195 62.293 34.2998 62.293 33.5356V30.7678H66.7461V33.5356C66.7461 34.2998 67.2446 34.9195 67.8594 34.9195C68.4741 34.9195 68.9727 34.2998 68.9727 33.5356V30.7678H73.4258V33.5356C73.4258 34.2998 73.9243 34.9195 74.5391 34.9195C75.1538 34.9195 75.6523 34.2998 75.6523 33.5356V30.7678H80.7734V40.4551Z" fill="white"/>
<path d="M54.5 77.879C58.7239 77.879 63 76.2387 63 73.1032V66.3174L67 64.1948V76.6851C67 77.3444 67.4478 77.879 68 77.879C68.5522 77.879 69 77.3444 69 76.6851V62.3577C69 61.8283 68.7229 61.425 68.3877 61.2569L54.9061 54.103C54.6475 53.9657 54.3524 53.9657 54.0938 54.103L40.5938 61.2667C40.2328 61.4583 40 61.8859 40 62.3577C40 62.8294 40.2327 63.2571 40.5938 63.4487L46 66.3174V73.1032C46 76.2387 50.276 77.879 54.5 77.879ZM61 73.1032C61 73.8173 58.7885 75.4911 54.5 75.4911C50.2115 75.4911 48 73.8173 48 73.1032V67.3789L54.0938 70.6125C54.2231 70.6811 54.3616 70.7153 54.5 70.7153C54.6384 70.7153 54.7769 70.6811 54.9062 70.6125L61 67.3787V73.1032ZM43.4621 62.3578L54.5 56.5005L65.5379 62.3578L54.5 68.2149L43.4621 62.3578Z" fill="white"/>
</svg>
