<svg width="34" height="28" viewBox="0 0 34 28" fill="none" xmlns="http://www.w3.org/2000/svg">
<path d="M33.3056 3.69555C32.0808 4.22389 30.7479 4.60414 29.3751 4.75223C30.8004 3.90543 31.8678 2.56761 32.377 0.989792C31.0395 1.78546 29.5742 2.3434 28.0462 2.63886C27.4076 1.95612 26.6352 1.41223 25.7771 1.04105C24.9191 0.669884 23.9938 0.479397 23.059 0.481462C19.2765 0.481462 16.2345 3.54745 16.2345 7.30989C16.2345 7.83824 16.2986 8.36658 16.4026 8.87491C10.739 8.57872 5.68769 5.87296 2.32951 1.73027C1.71762 2.77541 1.39696 3.96543 1.40091 5.17651C1.40091 7.54605 2.60569 9.6354 4.44288 10.8642C3.3602 10.8216 2.30286 10.524 1.35688 9.99564V10.0797C1.35688 13.3978 3.7024 16.1476 6.82843 16.78C6.24148 16.9325 5.63769 17.0105 5.03126 17.0122C4.58698 17.0122 4.1667 16.9682 3.74243 16.9081C4.60699 19.6139 7.12462 21.5792 10.1226 21.6432C7.77705 23.4804 4.83914 24.5611 1.64907 24.5611C1.0767 24.5611 0.548356 24.5411 0 24.477C3.02596 26.4183 6.61629 27.539 10.4828 27.539C23.0349 27.539 29.9034 17.1403 29.9034 8.11442C29.9034 7.81822 29.9034 7.52203 29.8834 7.22584C31.2122 6.25321 32.377 5.04843 33.3056 3.69555Z" fill="#2091F9"/>
</svg>
